# xmcd
#
# Track frame offsets:
#	150
#	15287
#	31474
#	50440
#	67461
#	87069
#	101244
#	118402
#	135154
#	150237
#	168266
#	186103
#
# Disc length: 2654 seconds
#
# Revision: 0
# Processed by: cddbd v1.5.2PL0 Copyright (c) Steve Scherf et al.
# Submitted via: EasyCDDAExtractor 10.0.5.1
#
DISCID=960a5c0c
DTITLE=The McClymonts - Chaos And Bright Lights
DYEAR=2007
DGENRE=Country
TTITLE0=My Life Again
TTITLE1=Save Yourself
TTITLE2=Don't Tie My Hands
TTITLE3=Good Cry
TTITLE4=Settle Down
TTITLE5=Way Too Late
TTITLE6=You Were Right
TTITLE7=Shotgun
TTITLE8=Favourite Boyfriend Of The Year
TTITLE9=Finally Over Blue
TTITLE10=Til You Love Me
TTITLE11=Ghost Town
EXTD=
EXTT0=
EXTT1=
EXTT2=
EXTT3=
EXTT4=
EXTT5=
EXTT6=
EXTT7=
EXTT8=
EXTT9=
EXTT10=
EXTT11=
PLAYORDER=
